{
  "accessors": [
    {
      "bufferView": 2,
      "componentType": 5126,
      "count": 11040,
      "max": [
        1.0097391605377197,
        1.0110306739807129,
        1.0093975067138672
      ],
      "min": [
        -1.0097391605377197,
        -1.0110306739807129,
        -1.0093975067138672
      ],
      "type": "VEC3"
    },
    {
      "bufferView": 2,
      "byteOffset": 132480,
      "componentType": 5126,
      "count": 11040,
      "max": [
        0.99949264526367188,
        0.99968832731246948,
        0.99995410442352295
      ],
      "min": [
        -0.99922841787338257,
        -0.99733561277389526,
        -0.99929451942443848
      ],
      "type": "VEC3"
    },
    {
      "bufferView": 1,
      "componentType": 5126,
      "count": 11040,
      "max": [
        0.99999934434890747,
        1
      ],
      "min": [
        0,
        0
      ],
      "type": "VEC2"
    },
    {
      "bufferView": 0,
      "componentType": 5125,
      "count": 16320,
      "max": [
        11039
      ],
      "min": [
        0
      ],
      "type": "SCALAR"
    },
    {
      "bufferView": 2,
      "byteOffset": 264960,
      "componentType": 5126,
      "count": 44160,
      "max": [
        1.0097391605377197,
        1.0110306739807129,
        1.0093975067138672
      ],
      "min": [
        -1.0097391605377197,
        -1.0110306739807129,
        -1.0093975067138672
      ],
      "type": "VEC3"
    },
    {
      "bufferView": 2,
      "byteOffset": 794880,
      "componentType": 5126,
      "count": 44160,
      "max": [
        0.99998664855957031,
        1,
        0.99998682737350464
      ],
      "min": [
        -0.99998682737350464,
        -0.9999961256980896,
        -0.99999499320983887
      ],
      "type": "VEC3"
    },
    {
      "bufferView": 1,
      "byteOffset": 88320,
      "componentType": 5126,
      "count": 44160,
      "max": [
        0.99999934434890747,
        1
      ],
      "min": [
        0,
        0
      ],
      "type": "VEC2"
    },
    {
      "bufferView": 0,
      "byteOffset": 65280,
      "componentType": 5125,
      "count": 66240,
      "max": [
        44159
      ],
      "min": [
        0
      ],
      "type": "SCALAR"
    },
    {
      "bufferView": 3,
      "componentType": 5126,
      "count": 499,
      "max": [
        16.666666030883789
      ],
      "min": [
        0.041666667908430099
      ],
      "type": "SCALAR"
    },
    {
      "bufferView": 4,
      "componentType": 5126,
      "count": 499,
      "max": [
        8.3573928491499134e-17,
        0.99999719858169556,
        8.3573928491499134e-17,
        1
      ],
      "min": [
        -8.6595599416820643e-17,
        -0.86444634199142456,
        -8.6595599416820643e-17,
        -0.49727001786231995
      ],
      "type": "VEC4"
    }
  ],
  "animations": [
    {
      "channels": [
        {
          "sampler": 0,
          "target": {
            "node": 5,
            "path": "rotation"
          }
        }
      ],
      "name": "Take 001",
      "samplers": [
        {
          "input": 8,
          "interpolation": "LINEAR",
          "output": 9
        }
      ]
    }
  ],
  "asset": {
    "extras": {
      "author": "pan.stasian (https://sketchfab.com/pan_stasian)",
      "license": "CC-BY-4.0 (http://creativecommons.org/licenses/by/4.0/)",
      "source": "https://sketchfab.com/3d-models/pretty-simple-discoball-6b1921865be14de982f9483040acaa2d",
      "title": "Pretty simple discoball"
    },
    "generator": "Sketchfab-9.33.0",
    "version": "2.0"
  },
  "bufferViews": [
    {
      "buffer": 0,
      "byteLength": 330240,
      "byteOffset": 0,
      "name": "floatBufferViews",
      "target": 34963
    },
    {
      "buffer": 0,
      "byteLength": 441600,
      "byteOffset": 330240,
      "byteStride": 8,
      "name": "floatBufferViews",
      "target": 34962
    },
    {
      "buffer": 0,
      "byteLength": 1324800,
      "byteOffset": 771840,
      "byteStride": 12,
      "name": "floatBufferViews",
      "target": 34962
    },
    {
      "buffer": 0,
      "byteLength": 1996,
      "byteOffset": 2096640,
      "name": "floatBufferViews"
    },
    {
      "buffer": 0,
      "byteLength": 7984,
      "byteOffset": 2098636,
      "byteStride": 16,
      "name": "floatBufferViews"
    }
  ],
  "buffers": [
    {
      "byteLength": 2106620,
      "uri": "scene.bin"
    }
  ],
  "materials": [
    {
      "doubleSided": true,
      "emissiveFactor": [
        0,
        0,
        0
      ],
      "name": "disco_mat",
      "pbrMetallicRoughness": {
        "baseColorFactor": [
          0.84827124858243041,
          0.086298314737068199,
          0.61018729428050777,
          1
        ],
        "metallicFactor": 1,
        "roughnessFactor": 0
      }
    },
    {
      "doubleSided": true,
      "name": "non_disco_mat",
      "pbrMetallicRoughness": {
        "baseColorFactor": [
          0.0077384440943840584,
          0.0077384440943840584,
          0.0077384440943840584,
          1
        ],
        "metallicFactor": 1,
        "roughnessFactor": 0.66929875533119843
      }
    }
  ],
  "meshes": [
    {
      "name": "pSphere3_disco_mat_0",
      "primitives": [
        {
          "attributes": {
            "NORMAL": 1,
            "POSITION": 0,
            "TEXCOORD_0": 2
          },
          "indices": 3,
          "material": 0,
          "mode": 4
        }
      ]
    },
    {
      "name": "pSphere3_non_disco_mat_0",
      "primitives": [
        {
          "attributes": {
            "NORMAL": 5,
            "POSITION": 4,
            "TEXCOORD_0": 6
          },
          "indices": 7,
          "material": 1,
          "mode": 4
        }
      ]
    }
  ],
  "nodes": [
    {
      "children": [
        1
      ],
      "name": "RootNode (gltf orientation matrix)",
      "rotation": [
        -0.70710678118654746,
        -0,
        -0,
        0.70710678118654757
      ]
    },
    {
      "children": [
        2
      ],
      "name": "RootNode (model correction matrix)"
    },
    {
      "children": [
        3
      ],
      "matrix": [
        1,
        0,
        0,
        0,
        0,
        0,
        1,
        0,
        0,
        -1,
        0,
        0,
        0,
        0,
        0,
        1
      ],
      "name": "38090a759c5a4c6bb322ead3c3040581.fbx"
    },
    {
      "children": [
        4
      ],
      "name": ""
    },
    {
      "children": [
        5
      ],
      "name": "RootNode"
    },
    {
      "children": [
        6,
        7
      ],
      "name": "pSphere3",
      "rotation": [
        0,
        0.61421269178390503,
        0,
        0.78914052248001099
      ],
      "translation": [
        0.0001150965690612793,
        -3.719329833984375e-05,
        0.00036185979843139648
      ]
    },
    {
      "mesh": 0,
      "name": "pSphere3_disco_mat_0"
    },
    {
      "mesh": 1,
      "name": "pSphere3_non_disco_mat_0"
    }
  ],
  "scene": 0,
  "scenes": [
    {
      "name": "OSG_Scene",
      "nodes": [
        0
      ]
    }
  ]
}

